<?xml version="1.0" standalone="no"?><!DOCTYPE svg PUBLIC "-//W3C//DTD SVG 1.1//EN" "http://www.w3.org/Graphics/SVG/1.1/DTD/svg11.dtd"><svg t="1690349622788" class="icon" viewBox="0 0 1117 1024" version="1.1" xmlns="http://www.w3.org/2000/svg" p-id="6204" xmlns:xlink="http://www.w3.org/1999/xlink" width="436.328125" height="400"><path d="M1018.88 370.967273l-74.845091-222.766546-1.489454-2.048a52.410182 52.410182 0 0 0-3.444364-6.330182C913.873455 90.205091 867.607273 0 750.033455 0H366.033455C247.249455 0.279273 200.704 91.880727 176.686545 140.939636l-6.144 12.567273v5.492364c0 0.930909-0.930909 1.861818-0.930909 2.699636l-70.469818 208.430546C36.398545 414.254545 0 478.301091 0 545.140364v295.842909c0 41.332364 13.963636 81.361455 39.284364 113.291636v6.795636h5.306181c28.858182 33.233455 68.328727 54.644364 111.150546 60.229819a173.893818 173.893818 0 0 0 180.596364-96.535273l441.623272-1.768727a178.362182 178.362182 0 0 0 183.296 99.421091C1049.972364 1011.898182 1117.090909 934.167273 1117.090909 841.634909V545.978182c-0.651636-65.442909-37.236364-129.861818-98.210909-175.010909zM254.882909 708.514909c-43.380364 0-78.475636-36.305455-78.475636-81.268364s35.095273-81.361455 78.475636-81.361454c43.380364 0 78.568727 36.398545 78.568727 81.361454 0 44.869818-35.188364 81.268364-78.568727 81.268364z m610.117818 0c-43.380364 0-78.568727-36.305455-78.568727-81.268364s35.188364-81.361455 78.568727-81.361454c43.380364 0 78.475636 36.398545 78.475637 81.361454 0 44.869818-35.095273 81.268364-78.475637 81.268364zM176.407273 431.569455l84.712727-250.042182v-0.930909c25.320727-50.455273 48.779636-85.643636 105.378909-85.643637h385.024c57.530182 0 80.989091 36.957091 107.147636 89.367273l1.768728 3.537455c0 1.861818 1.768727 3.723636 2.606545 6.330181l80.430546 237.381819h-767.069091z" fill="#1296db" p-id="6205"></path></svg>