<?xml version="1.0" standalone="no"?><!DOCTYPE svg PUBLIC "-//W3C//DTD SVG 1.1//EN" "http://www.w3.org/Graphics/SVG/1.1/DTD/svg11.dtd"><svg t="1690348995421" class="icon" viewBox="0 0 1024 1024" version="1.1" xmlns="http://www.w3.org/2000/svg" p-id="1554" xmlns:xlink="http://www.w3.org/1999/xlink" width="200" height="200"><path d="M744 730H280c-31.982 0-58-26.02-58-58v-146c0-2.24 0.126-4.452 0.372-6.626l0.078-0.688 0.01-0.054c2.104-16.678 11.396-31.618 25.498-40.99l5.434-3.612 3.444-5.542 50.648-81.522 4.518-7.272v-8.56c0-35.916 26.02-65.136 58-65.136h284c31.98 0 58 29.22 58 65.136v8.56l4.52 7.272 50.648 81.524 3.442 5.542 5.434 3.612c14.102 9.374 23.394 24.312 25.498 40.988l0.072 0.582 0.016 0.156c0.246 2.176 0.372 4.386 0.372 6.628v146C802 703.98 775.98 730 744 730z" fill="#DFECFD" p-id="1555"></path><path d="M744 700c15.44 0 28-12.562 28-28v-146c0-1.102-0.058-2.186-0.18-3.254l-0.012-0.106-0.032-0.254c-1.012-8.016-5.51-15.216-12.342-19.758l-10.866-7.222-6.886-11.084-50.648-81.524-9.036-14.542v-17.12c0-19.046-12.822-35.136-28-35.136h-284c-15.178 0-28 16.09-28 35.136v17.12l-9.036 14.542-50.648 81.522-6.888 11.084-10.87 7.224c-6.828 4.538-11.326 11.74-12.336 19.756l-0.006 0.04-0.036 0.324a28.572 28.572 0 0 0-0.182 3.25v146c0 15.438 12.56 28 28 28H744M744 760H280c-48.602 0-88-39.398-88-88v-146c0-3.382 0.19-6.718 0.562-10H192l0.696-1.122c3.274-25.958 17.854-48.396 38.656-62.22L282 371.136C282 318.594 321.4 276 370 276h284c48.602 0 88 42.594 88 95.136l50.648 81.524c20.798 13.824 35.382 36.262 38.656 62.218L832 516h-0.56a88.76 88.76 0 0 1 0.56 10v146c0 48.602-39.398 88-88 88z" fill="#4988FD" p-id="1556"></path><path d="M280 438h464c48.602 0 88 39.398 88 88v146c0 48.602-39.398 88-88 88H280c-48.602 0-88-39.398-88-88v-146c0-48.602 39.398-88 88-88z" fill="#4988FD" p-id="1557"></path><path d="M744 760H280c-48.524 0-88-39.476-88-88v-146c0-48.524 39.476-88 88-88h464c48.524 0 88 39.476 88 88v146c0 48.524-39.476 88-88 88zM280 498c-15.44 0-28 12.56-28 28v146c0 15.44 12.56 28 28 28h464c15.44 0 28-12.56 28-28v-146c0-15.44-12.56-28-28-28H280z" fill="#4988FD" p-id="1558"></path><path d="M432 196h160v60h-160zM598 630h-172c-16.568 0-30-13.432-30-30s13.432-30 30-30h172c16.568 0 30 13.432 30 30s-13.432 30-30 30z" fill="#DFECFD" p-id="1559"></path><path d="M320 600m-38 0a38 38 0 1 0 76 0 38 38 0 1 0-76 0Z" fill="#FFFFFF" p-id="1560"></path><path d="M704 600m-38 0a38 38 0 1 0 76 0 38 38 0 1 0-76 0Z" fill="#FFFFFF" p-id="1561"></path><path d="M312 836c-16.568 0-30-13.432-30-30v-72c0-16.568 13.432-30 30-30s30 13.432 30 30v72c0 16.568-13.432 30-30 30zM714 836c-16.568 0-30-13.432-30-30v-72c0-16.568 13.432-30 30-30s30 13.432 30 30v72c0 16.568-13.432 30-30 30z" fill="#4988FD" p-id="1562"></path></svg>