<?xml version="1.0" standalone="no"?><!DOCTYPE svg PUBLIC "-//W3C//DTD SVG 1.1//EN" "http://www.w3.org/Graphics/SVG/1.1/DTD/svg11.dtd"><svg t="1657698860065" class="icon" viewBox="0 0 1024 1024" version="1.1" xmlns="http://www.w3.org/2000/svg" p-id="7058" xmlns:xlink="http://www.w3.org/1999/xlink" width="200" height="200"><defs><style type="text/css">@font-face { font-family: feedback-iconfont; src: url("//at.alicdn.com/t/font_1031158_u69w8yhxdu.woff2?t=1630033759944") format("woff2"), url("//at.alicdn.com/t/font_1031158_u69w8yhxdu.woff?t=1630033759944") format("woff"), url("//at.alicdn.com/t/font_1031158_u69w8yhxdu.ttf?t=1630033759944") format("truetype"); }
</style></defs><path d="M2.198365 0.09655h1019.610697v1023.814327H2.198365z" fill="#FFFFFF" p-id="7059"></path><path d="M2.101815 0h1019.79637v1024H2.101815z" fill="#FFFFFF" opacity=".5" p-id="7060"></path><path d="M971.736838 378.029693a47.042045 47.042045 0 0 0-19.27283-30.309218L539.557548 56.355389a48.921053 48.921053 0 0 0-55.211645 0L71.580554 347.720475a46.737541 46.737541 0 1 0 53.310356 76.786818l23.439326-16.539728v365.9981l149.154624-102.691877a5.154275 5.154275 0 0 1 8.065623 4.292753v54.179305h190.537363v128.054773H305.609899v59.74206a5.154275 5.154275 0 0 1-8.05077 4.300181l-149.169477-102.120006v107.252a49.381521 49.381521 0 0 0 14.304227 34.839633 48.571988 48.571988 0 0 0 34.579691 14.378497h629.527129a48.63883 48.63883 0 0 0 34.564837-14.400778 49.43351 49.43351 0 0 0 14.319081-34.817352V407.967565l23.379912 16.539728a46.626138 46.626138 0 0 0 65.059727-11.31861 47.339121 47.339121 0 0 0 7.612582-35.15899zM488.178188 559.513653a15.507387 15.507387 0 0 1-15.507387 15.507387H360.784409a15.507387 15.507387 0 0 1-15.507387-15.507387v-49.017602a15.507387 15.507387 0 0 1 15.507387-15.507387H472.670801a15.507387 15.507387 0 0 1 15.507387 15.507387z m0-128.054773a15.507387 15.507387 0 0 1-15.507387 15.514814H360.784409a15.507387 15.507387 0 0 1-15.507387-15.514814v-49.017603a15.507387 15.507387 0 0 1 15.507387-15.507387H472.670801a15.507387 15.507387 0 0 1 15.507387 15.507387z m190.537363 128.054773a15.507387 15.507387 0 0 1-15.507387 15.507387H551.321772a15.507387 15.507387 0 0 1-15.507387-15.507387v-49.017602a15.507387 15.507387 0 0 1 15.507387-15.507387h111.886392a15.507387 15.507387 0 0 1 15.507387 15.507387z m0-128.054773a15.507387 15.507387 0 0 1-15.507387 15.514814H551.321772a15.507387 15.507387 0 0 1-15.507387-15.514814v-49.017603a15.507387 15.507387 0 0 1 15.507387-15.507387h111.886392a15.507387 15.507387 0 0 1 15.507387 15.507387z" fill="#1296db" p-id="7061" data-spm-anchor-id="a313x.7781069.0.i6" class="selected"></path></svg>