<?xml version="1.0" standalone="no"?><!DOCTYPE svg PUBLIC "-//W3C//DTD SVG 1.1//EN" "http://www.w3.org/Graphics/SVG/1.1/DTD/svg11.dtd"><svg t="1690349384803" class="icon" viewBox="0 0 1024 1024" version="1.1" xmlns="http://www.w3.org/2000/svg" p-id="4031" xmlns:xlink="http://www.w3.org/1999/xlink" width="400" height="400"><path d="M175.445333 135.168h436.309334v339.541333H175.445333z" fill="#BDE0FF" p-id="4032"></path><path d="M815.872 68.266667c-70.997333-10.069333-47.189333 47.189333-47.189333 47.189333l52.224 71.68c75.434667 91.221333-28.330667 69.802667-28.330667 69.802667-65.962667 31.488 0 70.997333 0 70.997333h94.293333v425.728c-42.154667 59.733333-70.997333 0-70.997333 0V470.016c2.645333-44.629333-27.477333-84.48-70.997333-94.293333h-70.997334a29.602133 29.602133 0 0 1-23.893333-23.893334v-212.48c0-35.242667-15.701333-44.032-46.506667-45.909333-30.805333-1.877333-372.224 0-425.728 0-25.770667 0.341333-46.506667 21.333333-46.506666 47.189333V849.92c-140.202667 48.384-23.893333 94.293333-23.893334 94.293333h591.104c92.416-62.890667-47.189333-94.293333-47.189333-94.293333V472.576l3.754667-3.754667a63.249067 63.249067 0 0 1 46.08-17.408c17.066667 0.682667 33.109333 8.362667 44.458666 21.162667v306.261333c4.949333 29.269333 22.101333 55.125333 47.189334 70.997334h94.293333c30.293333-15.957333 55.125333-40.704 70.997333-70.997334V212.906667L815.872 68.266667zM538.709333 415.829333c0 7.850667-3.072 15.36-8.618666 20.906667-5.546667 5.546667-13.056 8.618667-20.906667 8.618667H278.101333c-7.850667 0-15.36-3.072-20.906666-8.618667a29.508267 29.508267 0 0 1-8.618667-20.906667v-221.866666c0-16.298667 13.226667-29.610667 29.610667-29.610667h230.997333c7.850667 0 15.36 3.072 20.906667 8.618667 5.546667 5.546667 8.618667 13.056 8.618666 20.906666v221.952z" fill="#3A78E8" p-id="4033"></path></svg>