<?xml version="1.0" standalone="no"?><!DOCTYPE svg PUBLIC "-//W3C//DTD SVG 1.1//EN" "http://www.w3.org/Graphics/SVG/1.1/DTD/svg11.dtd"><svg t="1657698773764" class="icon" viewBox="0 0 1024 1024" version="1.1" xmlns="http://www.w3.org/2000/svg" p-id="5693" xmlns:xlink="http://www.w3.org/1999/xlink" width="200" height="200"><defs><style type="text/css">@font-face { font-family: feedback-iconfont; src: url("//at.alicdn.com/t/font_1031158_u69w8yhxdu.woff2?t=1630033759944") format("woff2"), url("//at.alicdn.com/t/font_1031158_u69w8yhxdu.woff?t=1630033759944") format("woff"), url("//at.alicdn.com/t/font_1031158_u69w8yhxdu.ttf?t=1630033759944") format("truetype"); }
</style></defs><path d="M5.298087 0H1024v1022.901797H5.298087z" fill="#FFFFFF" p-id="5694"></path><path d="M0 0.912696h1018.88742V1024H0z" fill="#FFFFFF" opacity=".5" p-id="5695"></path><path d="M973.972406 367.949913a47.000116 47.000116 0 0 0-19.255652-30.282203L542.208 46.569739a48.877449 48.877449 0 0 0-55.162435 0L74.648116 337.66771a46.703304 46.703304 0 1 0 53.270261 76.718377l23.411014-16.524986v321.491479h172.944696v-54.131015a5.149681 5.149681 0 0 1 8.058435-4.288927l174.072579 119.845101a6.886029 6.886029 0 0 1 0 11.323362l-174.065159 119.169856a5.194203 5.194203 0 0 1-8.051014-4.296348v-59.681392H151.329391v69.10516a49.352348 49.352348 0 0 0 14.291479 34.80858 48.558377 48.558377 0 0 0 34.548869 14.365681h628.973449a48.573217 48.573217 0 0 0 34.526609-14.387942 49.367188 49.367188 0 0 0 14.313739-34.786319V397.861101l23.351652 16.524986a46.577159 46.577159 0 0 0 65.00174-11.308522 47.230145 47.230145 0 0 0 7.635478-35.127652zM490.852174 559.935072a15.493565 15.493565 0 0 1-15.493565 15.493566H363.571942a15.493565 15.493565 0 0 1-15.500985-15.493566v-48.973913a15.493565 15.493565 0 0 1 15.500985-15.493565h111.816348a15.493565 15.493565 0 0 1 15.493565 15.493565z m0-127.940637a15.493565 15.493565 0 0 1-15.493565 15.493565H363.571942a15.493565 15.493565 0 0 1-15.500985-15.493565v-48.973913a15.493565 15.493565 0 0 1 15.500985-15.493565h111.816348a15.493565 15.493565 0 0 1 15.493565 15.493565zM681.21971 559.935072a15.493565 15.493565 0 0 1-15.493565 15.493566H553.939478a15.493565 15.493565 0 0 1-15.500985-15.493566v-48.973913a15.493565 15.493565 0 0 1 15.500985-15.493565h111.786667a15.493565 15.493565 0 0 1 15.493565 15.493565z m0-127.940637a15.493565 15.493565 0 0 1-15.493565 15.493565H553.939478a15.493565 15.493565 0 0 1-15.500985-15.493565v-48.973913a15.493565 15.493565 0 0 1 15.500985-15.493565h111.786667a15.493565 15.493565 0 0 1 15.493565 15.493565z" fill="#2E97DE" p-id="5696"></path></svg>