<?xml version="1.0" standalone="no"?><!DOCTYPE svg PUBLIC "-//W3C//DTD SVG 1.1//EN" "http://www.w3.org/Graphics/SVG/1.1/DTD/svg11.dtd"><svg t="1690349330856" class="icon" viewBox="0 0 1602 1024" version="1.1" xmlns="http://www.w3.org/2000/svg" p-id="2994" xmlns:xlink="http://www.w3.org/1999/xlink" width="625.78125" height="400"><path d="M1502.600529 941.407058c0.155825-230.064837-119.228569-444.636192-317.349231-570.498465l19.834327-102.533008C1451.423068 407.950479 1602.885202 664.260738 1602.773898 941.407058c0 26.890984-22.416574 48.684257-50.086684 48.684257s-50.086684-21.815534-50.086685-48.684257z m-1402.42716 0c-0.044521-372.199716 307.042505-675.613719 689.882859-681.624122l55.696393-96.188695c-219.891675-11.864979-435.130853 64.778778-595.118853 211.922327C90.601247 522.682377-0.022261 727.325438 0 941.429318c0 26.890984 22.416574 48.684257 50.086684 48.684257s50.086684-21.815534 50.086685-48.684257zM1089.975294 0L949.643535 886.423009c-16.918169 106.517682-113.90825 163.482938-219.691328 126.08488l-33.747295-11.976283c-104.38065-36.997364-142.246183-141.689665-84.857974-233.804643L1089.975294 0z" fill="#2795FF" p-id="2995"></path></svg>